<svg xmlns="http://www.w3.org/2000/svg" viewBox="0 0 179.57 133.31"><defs><style>.cls-1{fill:#ffdfa6;}</style></defs><title>Asset 1</title><g id="Layer_2" data-name="Layer 2"><g id="tel"><path class="cls-1" d="M56.75,57.69c0,11.31,14.79,20.48,33,20.48s33-9.17,33-20.48S108,37.22,89.79,37.22,56.75,46.39,56.75,57.69ZM69.87,54c0-6.82,8.92-12.35,19.92-12.35S109.7,47.13,109.7,54s-8.91,12.34-19.91,12.34S69.87,60.76,69.87,54Z"/><path class="cls-1" d="M153.14,98.87c-26.08-11.35-28.79-38.11-28.79-38.11.4,6.33-2.77,13-11.58,19s-23,5.63-23,5.63-14.19.36-23-5.63-12-12.64-11.58-19c0,0-2.71,26.76-28.79,38.11,0,0-.76,5.08,3.13,5.08H150C153.91,104,153.14,98.87,153.14,98.87Z"/><path class="cls-1" d="M154.22,102.65c-.4,1.75-2.26,2.6-4.35,2.6H29.7c-2.09,0-3.95-.85-4.34-2.6,0,0-1.7,19-.91,25.3.46,3.57,1.47,5,13.44,5.19s51.73.16,51.73.16,40.09.07,52.06-.16,13-1.62,13.44-5.19C155.91,121.67,154.22,102.65,154.22,102.65Z"/><path class="cls-1" d="M173.05,49.29c-14.65,0-40.22-4.27-40.55-8.63-.29-3.77,2.5-8.15,2.53-8.19l.15-.25,0-.29c0-.1-1.18-9.86-1.18-11.65,0-1-.76-1.56-7.54-1.77-1.08-7.19-5.09-11.74-7.5-11.74-4.31,0-4.93,1.82-5.72,4.13-.13.4-.28.84-.46,1.29-.51,1.31-1.65,3.85-2.83,6.31l-7.75.13c-4.78.09-9.18.16-12.38.16s-7.61-.07-12.39-.16l-7.75-.13c-1.18-2.46-2.32-5-2.83-6.31-.18-.45-.33-.89-.46-1.29C65.57,8.59,65,6.77,60.64,6.77c-2.41,0-6.42,4.55-7.49,11.74-6.79.21-7.55.74-7.55,1.77,0,1.79-1.17,11.55-1.18,11.65l0,.29.16.25s2.81,4.42,2.52,8.19c-.33,4.36-25.9,8.63-40.55,8.63-4.23,0-4.92-.45-4.95-.46C-.43,47.29,0,42.68.22,40a4.8,4.8,0,0,1,1-.12l1,0-.19-.94a20.64,20.64,0,0,1,5.9-17.37,32.58,32.58,0,0,1,12.78-8C51.43,2,77.43,0,89.79,0a196.37,196.37,0,0,1,68.75,12.49,35,35,0,0,1,13.2,9,20.58,20.58,0,0,1,5.9,17.37l-.2.94,1,0a4.8,4.8,0,0,1,.95.12c.28,2.73.65,7.33-1.35,8.87,0,0-.72.46-4.94.46Z"/><path class="cls-1" d="M125.87,24a24,24,0,0,0-.16-4.71c-.9-7.52-5-11.72-6.78-11.72-4.4,0-4.23,1.86-5.42,4.91-.54,1.39-1.78,4.13-3.08,6.82-1.56,3.22-3.22,6.34-3.86,6.9H73c-.64-.56-2.3-3.68-3.86-6.9-1.3-2.69-2.54-5.43-3.08-6.82-1.19-3.05-1-4.91-5.42-4.91-1.79,0-5.88,4.2-6.78,11.72A24.84,24.84,0,0,0,53.7,24c.67,10.5,15.41,13.21,15.41,13.21H80.63a52.14,52.14,0,0,1,18.31,0h11.52S125.2,34.51,125.87,24Z"/></g></g></svg>