<svg xmlns="http://www.w3.org/2000/svg" viewBox="0 0 247.14 58.29"><defs><style>.cls-1{fill:#ffe59d;}</style></defs><title>portfolio-ornament-bottom_1</title><g id="Layer_2" data-name="Layer 2"><g id="Objects"><path class="cls-1" d="M146.49,20.84A29.8,29.8,0,0,1,138,19.31c-5.14-1.55-10.94-5.48-14.86-8.31a.76.76,0,0,1,0-1.22c6-4.36,10.9-7.06,14.86-8.25,3.51-1.06,7.61-2,11.42-1.24,4.65,1,7.77,5,7.77,10.13s-3.12,9.16-7.77,10.13A14.81,14.81,0,0,1,146.49,20.84ZM124.91,10.39c3.78,2.69,9,6.11,13.57,7.49,3.32,1,7.19,1.93,10.67,1.2,3.94-.82,6.58-4.3,6.58-8.66s-2.64-7.84-6.58-8.66C145.67,1,141.8,2,138.48,3,134.86,4.05,130.42,6.49,124.91,10.39Z"/><path class="cls-1" d="M100.75,20.84a14.81,14.81,0,0,1-3-.29c-4.65-1-7.77-5-7.77-10.13S93.13,1.26,97.78.29c3.81-.79,7.91.18,11.42,1.24,4,1.19,8.82,3.89,14.86,8.25a.76.76,0,0,1,0,1.22c-3.92,2.83-9.72,6.76-14.86,8.31A29.8,29.8,0,0,1,100.75,20.84Zm0-19.34a13.11,13.11,0,0,0-2.66.26c-3.94.82-6.58,4.3-6.58,8.66s2.64,7.84,6.58,8.66c3.48.73,7.35-.2,10.67-1.2,4.58-1.38,9.78-4.8,13.57-7.49-5.51-3.9-10-6.34-13.57-7.43A28.57,28.57,0,0,0,100.75,1.5Z"/><path class="cls-1" d="M132.29,39a7.24,7.24,0,0,1-2.5-.46c-3.38-1.25-6.14-5-4.7-10.68a13.93,13.93,0,0,1,3.55-6.14l-.26-.17-1.48-1c-9.79-6.42-19.92-13-31.56-14.47C83.43,4.67,76.41,9,73.5,13.44a14.61,14.61,0,0,1,4.8,4.89,6.92,6.92,0,0,1,.32,6.07,3.26,3.26,0,0,1-2.83,1.74,4,4,0,0,1-3.4-1.56c-1.9-2.3-2.23-6.46-1.72-8.46A11.35,11.35,0,0,1,71.42,14c-.3-.16-.61-.31-.92-.45C63,10,54.48,14,48.26,16.92,39.52,21,31,23.1,22.86,23.1h-.08c-8.43,0-18.83-2.9-22.71-11a.76.76,0,0,1,.35-1,.76.76,0,0,1,1,.36C5,18.92,14.8,21.59,22.79,21.6h.07c7.89,0,16.22-2,24.77-6,6.48-3,15.37-7.21,23.51-3.42.33.15.65.31,1,.48A16.13,16.13,0,0,1,80.9,6a33.52,33.52,0,0,1,14.62-1.4c12,1.45,22.73,8.48,32.21,14.69l1.48,1,.54.36a27.75,27.75,0,0,1,13.33-6.14c4.27-.72,11.27,0,13.09,4.87a7.51,7.51,0,0,1-.42,6.3A8.82,8.82,0,0,1,149.9,30c-5.53,1.25-10.61-1.52-14.94-4.22-1.68-1.05-3.37-2.14-5-3.22a12.48,12.48,0,0,0-3.39,5.66c-1.3,5.07,1.22,8,3.76,8.91,1.95.72,4.42.43,5.38-1.52a.75.75,0,1,1,1.35.66A5.12,5.12,0,0,1,132.29,39Zm-1.21-17.48c1.54,1,3.11,2,4.68,3,4.07,2.54,8.82,5.15,13.81,4A7.44,7.44,0,0,0,154.43,25a6.07,6.07,0,0,0,.34-5.07c-1.49-4-7.81-4.52-11.44-3.91A26.39,26.39,0,0,0,131.08,21.52ZM72.76,14.75a8.72,8.72,0,0,0-.64,1.73c-.42,1.7-.08,5.32,1.43,7.15a2.46,2.46,0,0,0,2.15,1,1.78,1.78,0,0,0,1.6-1A5.42,5.42,0,0,0,77,19.07,13,13,0,0,0,72.76,14.75Z"/><path class="cls-1" d="M114.85,39a5.13,5.13,0,0,1-4.75-2.72.76.76,0,0,1,.35-1,.74.74,0,0,1,1,.35c1,1.94,3.43,2.24,5.38,1.52,2.55-1,5.06-3.85,3.77-8.91a12.59,12.59,0,0,0-3.4-5.66c-1.65,1.08-3.34,2.17-5,3.22-4.32,2.7-9.4,5.47-14.93,4.22a8.84,8.84,0,0,1-5.86-4.33,7.58,7.58,0,0,1-.42-6.3c1.82-4.89,8.82-5.59,13.09-4.87a27.71,27.71,0,0,1,13.33,6.14l.54-.36,1.49-1c9.47-6.21,20.21-13.24,32.21-14.69A33.53,33.53,0,0,1,166.25,6,16.1,16.1,0,0,1,175,12.62c.32-.17.64-.33,1-.48,8.14-3.79,17,.38,23.51,3.42,8.54,4,16.87,6,24.77,6h.07c8,0,17.78-2.68,21.36-10.1a.74.74,0,0,1,1-.36.76.76,0,0,1,.35,1c-3.88,8-14.27,10.94-22.71,11h-.07c-8.12,0-16.66-2.08-25.41-6.18C192.66,14,184.14,10,176.64,13.5c-.31.14-.62.29-.91.45a12.92,12.92,0,0,1,.75,2.17c.5,2,.17,6.16-1.73,8.46a4.06,4.06,0,0,1-3.39,1.56,3.26,3.26,0,0,1-2.84-1.74,6.92,6.92,0,0,1,.33-6.07,14.57,14.57,0,0,1,4.79-4.89c-2.91-4.43-9.93-8.77-21.83-7.33C140.16,7.53,130,14.16,120.24,20.58l-1.48,1-.26.17a13.83,13.83,0,0,1,3.55,6.14c1.44,5.64-1.32,9.43-4.7,10.68A7.24,7.24,0,0,1,114.85,39ZM101.1,15.77c-3.47,0-7.56,1-8.72,4.13A6,6,0,0,0,92.71,25a7.41,7.41,0,0,0,4.87,3.58c5,1.12,9.74-1.48,13.8-4,1.57-1,3.14-2,4.69-3A26.43,26.43,0,0,0,103.81,16,16,16,0,0,0,101.1,15.77Zm73.29-1a13.09,13.09,0,0,0-4.24,4.32,5.42,5.42,0,0,0-.31,4.61,1.78,1.78,0,0,0,1.6,1,2.46,2.46,0,0,0,2.15-1c1.51-1.83,1.86-5.45,1.43-7.15A9.33,9.33,0,0,0,174.39,14.75Z"/><path class="cls-1" d="M123.62,58.29a.76.76,0,0,1-.75-.75c0-9.7-10.17-14.91-10.28-15a.75.75,0,0,1-.35-1,.73.73,0,0,1,.92-.42C119,43.09,123,37.85,123,37.8a.74.74,0,0,1,.6-.3h0a.75.75,0,0,1,.6.3c.16.22,4.08,5.29,9.86,3.4a.74.74,0,0,1,.92.42.75.75,0,0,1-.36,1c-.1.05-10.27,5.26-10.27,15A.76.76,0,0,1,123.62,58.29ZM116.2,43.1a20.26,20.26,0,0,1,7.42,9.68A20.26,20.26,0,0,1,131,43.1a11.64,11.64,0,0,1-7.42-3.71A11.64,11.64,0,0,1,116.2,43.1Z"/></g></g></svg>