<svg xmlns="http://www.w3.org/2000/svg" viewBox="0 0 190.99 243"><defs><style>.cls-1{fill:none;}.cls-2{fill:#ffe59d;}</style></defs><title>Asset 4</title><g id="Layer_2" data-name="Layer 2"><g id="Layer_1-2" data-name="Layer 1"><rect class="cls-1" x="28" y="146" width="134" height="8"/><rect class="cls-1" x="30" y="201" width="134" height="8"/><rect class="cls-1" x="28" y="59" width="65" height="8"/><rect class="cls-1" x="28" y="118" width="134" height="8"/><rect class="cls-1" x="29" y="173" width="134" height="8"/><rect class="cls-1" x="28" y="91" width="134" height="8"/><polygon class="cls-2" points="186.49 56 134 2.06 134 56 186.49 56"/><path class="cls-2" d="M127,63V0H0V243H190l1-180H127ZM28,59H93v8H28Zm0,59H162v8H28Zm0,28H162v8H28Zm136,63H30v-8H164Zm-1-28H29v-8H163Zm-1-82H28V91H162Z"/></g></g></svg>