<svg xmlns="http://www.w3.org/2000/svg" viewBox="0 0 247.14 58.29"><defs><style>.cls-1{fill:#ffe59d;}</style></defs><title>portfolio-ornament-top_1</title><g id="Layer_2" data-name="Layer 2"><g id="Objects"><path class="cls-1" d="M146.49,58.29A29.8,29.8,0,0,1,138,56.76c-4-1.19-8.82-3.89-14.86-8.25a.76.76,0,0,1,0-1.22C127.1,44.46,132.9,40.53,138,39c3.51-1,7.61-2,11.42-1.23,4.65,1,7.77,5,7.77,10.13S154.11,57,149.46,58A14.81,14.81,0,0,1,146.49,58.29ZM124.91,47.9c5.51,3.9,10,6.33,13.57,7.43,3.32,1,7.19,1.93,10.67,1.2,3.94-.82,6.58-4.3,6.58-8.66s-2.64-7.84-6.58-8.66c-3.48-.73-7.35.2-10.67,1.2C133.9,41.79,128.69,45.21,124.91,47.9Z"/><path class="cls-1" d="M100.75,58.29a14.81,14.81,0,0,1-3-.29C93.13,57,90,53,90,47.87s3.12-9.16,7.77-10.13c3.81-.8,7.91.18,11.42,1.23,5.14,1.56,10.94,5.49,14.86,8.32a.76.76,0,0,1,0,1.22c-6,4.36-10.9,7.06-14.86,8.25A29.8,29.8,0,0,1,100.75,58.29Zm0-19.34a13.11,13.11,0,0,0-2.66.26c-3.94.82-6.58,4.3-6.58,8.66s2.64,7.84,6.58,8.66c3.48.73,7.35-.2,10.67-1.2,3.62-1.1,8.06-3.53,13.57-7.43-3.79-2.69-9-6.11-13.57-7.49A28.51,28.51,0,0,0,100.75,39Z"/><path class="cls-1" d="M91.33,53.91A32.31,32.31,0,0,1,80.9,52.26a16.13,16.13,0,0,1-8.79-6.59c-.32.17-.64.33-1,.48-8.14,3.79-17-.38-23.51-3.42-8.55-4-16.88-6-24.77-6h-.07c-8,0-17.79,2.67-21.36,10.1a.74.74,0,0,1-1,.35.75.75,0,0,1-.35-1c3.88-8,14.28-10.94,22.71-11h.08c8.11,0,16.66,2.08,25.4,6.18C54.48,44.29,63,48.28,70.5,44.79c.31-.14.62-.29.92-.45a11.59,11.59,0,0,1-.75-2.17c-.51-2-.18-6.16,1.72-8.46a4,4,0,0,1,3.4-1.56,3.26,3.26,0,0,1,2.83,1.74A6.92,6.92,0,0,1,78.3,40a14.7,14.7,0,0,1-4.8,4.89c2.91,4.43,9.92,8.76,21.84,7.32,11.64-1.41,21.77-8,31.56-14.46l1.53-1,.21-.14a13.93,13.93,0,0,1-3.55-6.14c-1.44-5.64,1.32-9.43,4.7-10.68,3-1.11,6.05-.16,7.25,2.26a.75.75,0,0,1-1.35.66c-1-2-3.43-2.24-5.38-1.52-2.54,1-5.06,3.84-3.76,8.91a12.48,12.48,0,0,0,3.39,5.66c1.65-1.08,3.34-2.18,5-3.23,4.32-2.69,9.39-5.46,14.94-4.21a8.82,8.82,0,0,1,5.85,4.33,7.51,7.51,0,0,1,.42,6.3c-1.82,4.89-8.82,5.59-13.09,4.87a27.75,27.75,0,0,1-13.33-6.14l-.5.32-1.52,1c-9.48,6.2-20.22,13.24-32.21,14.69A34.4,34.4,0,0,1,91.33,53.91ZM75.54,33.64a2.52,2.52,0,0,0-2,1c-1.51,1.83-1.85,5.45-1.43,7.15a8.72,8.72,0,0,0,.64,1.73A13.06,13.06,0,0,0,77,39.22a5.42,5.42,0,0,0,.31-4.61,1.8,1.8,0,0,0-1.6-1Zm55.54,3.13a26.39,26.39,0,0,0,12.25,5.53c3.63.61,9.95.09,11.44-3.91a6.07,6.07,0,0,0-.34-5.07,7.4,7.4,0,0,0-4.86-3.57c-5-1.12-9.74,1.48-13.81,4C134.19,34.74,132.62,35.76,131.08,36.77Z"/><path class="cls-1" d="M155.81,53.91a34.23,34.23,0,0,1-4.18-.25c-12-1.45-22.74-8.49-32.21-14.69l-1.53-1-.5-.32a27.71,27.71,0,0,1-13.33,6.14c-4.27.72-11.27,0-13.09-4.87a7.58,7.58,0,0,1,.42-6.3,8.84,8.84,0,0,1,5.86-4.33c5.54-1.25,10.61,1.52,14.93,4.21,1.68,1,3.37,2.15,5,3.23a12.59,12.59,0,0,0,3.4-5.66c1.29-5.07-1.22-8-3.77-8.91-1.94-.72-4.42-.43-5.38,1.52A.75.75,0,0,1,110.1,22c1.2-2.42,4.25-3.37,7.25-2.26,3.38,1.25,6.14,5,4.7,10.68a13.83,13.83,0,0,1-3.55,6.14l.21.14,1.53,1c9.79,6.42,19.92,13,31.57,14.46,11.91,1.44,18.92-2.89,21.83-7.32A14.57,14.57,0,0,1,168.85,40a6.92,6.92,0,0,1-.33-6.07,3.26,3.26,0,0,1,2.84-1.74,4.05,4.05,0,0,1,3.39,1.56c1.9,2.3,2.23,6.46,1.73,8.46a13.23,13.23,0,0,1-.75,2.17c.29.16.6.31.91.45,7.5,3.49,16-.5,22.24-3.42,8.74-4.1,17.29-6.18,25.4-6.18h.08c8.44,0,18.83,2.9,22.71,11a.75.75,0,0,1-.35,1,.73.73,0,0,1-1-.35c-3.58-7.43-13.38-10.09-21.36-10.1h-.08c-7.89,0-16.22,2-24.76,6-6.49,3-15.38,7.21-23.51,3.42-.34-.15-.66-.31-1-.48a16.1,16.1,0,0,1-8.78,6.59A32.41,32.41,0,0,1,155.81,53.91ZM171.6,33.64h-.16a1.8,1.8,0,0,0-1.6,1,5.42,5.42,0,0,0,.31,4.61,13.09,13.09,0,0,0,4.24,4.32,9.33,9.33,0,0,0,.63-1.73c.43-1.7.08-5.32-1.43-7.15A2.52,2.52,0,0,0,171.6,33.64ZM100,29.48a10.71,10.71,0,0,0-2.43.27,7.4,7.4,0,0,0-4.87,3.57,6.07,6.07,0,0,0-.33,5.07c1.49,4,7.8,4.52,11.43,3.91a26.43,26.43,0,0,0,12.26-5.53c-1.55-1-3.12-2-4.69-3C108,31.65,104.11,29.48,100,29.48Z"/><path class="cls-1" d="M123.62,20.79a.77.77,0,0,1-.6-.3c-.16-.22-4.08-5.29-9.86-3.4a.74.74,0,0,1-.92-.42.75.75,0,0,1,.35-1c.11-.05,10.28-5.27,10.28-15a.75.75,0,0,1,1.5,0c0,9.71,10.17,14.91,10.27,15a.75.75,0,0,1-.56,1.38c-5.82-1.89-9.82,3.34-9.86,3.4a.77.77,0,0,1-.6.3Zm-7.42-5.6a11.64,11.64,0,0,1,7.42,3.71A11.64,11.64,0,0,1,131,15.19a20.26,20.26,0,0,1-7.42-9.68A20.26,20.26,0,0,1,116.2,15.19Z"/></g></g></svg>