<svg xmlns="http://www.w3.org/2000/svg" viewBox="0 0 113.55 144.15"><defs><style>.cls-1{fill:#ffe59d;}</style></defs><title>ps-border</title><g id="Layer_2" data-name="Layer 2"><g id="Objects"><path class="cls-1" d="M44.3,134.89a8,8,0,0,1-1.69-.17,6.06,6.06,0,0,1,0-11.72,13.29,13.29,0,0,1,6.4.68,29.65,29.65,0,0,1,8.21,4.56.75.75,0,0,1,0,1.21C55.06,131,51.87,133.18,49,134A16.5,16.5,0,0,1,44.3,134.89Zm0-10.56a6.27,6.27,0,0,0-1.38.14,4.56,4.56,0,0,0,0,8.78,11.77,11.77,0,0,0,5.65-.65,26,26,0,0,0,6.92-3.76,26.63,26.63,0,0,0-6.92-3.72A14.93,14.93,0,0,0,44.3,124.33Z"/><path class="cls-1" d="M69.26,134.89a16.5,16.5,0,0,1-4.71-.85c-2.85-.86-6-3-8.21-4.59a.75.75,0,0,1,0-1.21,29.65,29.65,0,0,1,8.21-4.56A13.29,13.29,0,0,1,71,123a6.06,6.06,0,0,1,0,11.72A7.94,7.94,0,0,1,69.26,134.89Zm-11.18-6A25.94,25.94,0,0,0,65,132.6a11.8,11.8,0,0,0,5.66.65,4.56,4.56,0,0,0,0-8.78,11.92,11.92,0,0,0-5.66.65A26.6,26.6,0,0,0,58.08,128.84Z"/><path class="cls-1" d="M56.78,144.15a.76.76,0,0,1-.73-.57,19,19,0,0,0-3.74-6.39l-1.54,1a11,11,0,0,1-8.41,1.72A5.1,5.1,0,0,1,39,137.35a4.4,4.4,0,0,1-.25-3.72c1.06-2.86,5.07-3.29,7.51-2.87,1.95.33,4.3,2.18,6.37,4.46l.93-.61.84-.55,2.09-1.39c4.85-3.25,9.87-6.61,15.64-7.31,3.45-.42,8.24,0,11.35,2.6a8,8,0,0,1,1.49,1.6,17.59,17.59,0,0,1,4.19-.93c3.77-.47,7.49-1.37,9.17-4.87a13.47,13.47,0,0,0,0-11.54.75.75,0,0,1,1-1s5.79,2.44,9.51,0c2.21-1.45,3.32-4.37,3.32-8.67a.75.75,0,0,1,1.5,0c0,4.84-1.34,8.18-4,9.93-3.07,2-7.06,1.34-9.27.71a15.32,15.32,0,0,1-.65,11.28c-2,4.15-6.15,5.19-10.34,5.7a17.53,17.53,0,0,0-3.63.77,8,8,0,0,1,.6,2.58,4.09,4.09,0,0,1-1.22,3.4,2.63,2.63,0,0,1-4.45-2.47,6.08,6.08,0,0,1,3-4.18,6.81,6.81,0,0,0-1.06-1.09c-2.75-2.26-7.22-2.63-10.22-2.27-5.42.65-10.28,3.92-15,7.07l-2.09,1.39-.85.55-.77.51a20.62,20.62,0,0,1,3.94,6.84.74.74,0,0,1-.54.91Zm-12.22-12c-1.84,0-3.91.55-4.46,2a2.92,2.92,0,0,0,.17,2.49,3.68,3.68,0,0,0,2.42,1.78A9.55,9.55,0,0,0,50,136.89l1.33-.85c-1.84-2-3.84-3.55-5.35-3.81A8.64,8.64,0,0,0,44.56,132.12Zm39.73-.6a4.61,4.61,0,0,0-2.22,3.17,1.29,1.29,0,0,0,.25,1.12,1.35,1.35,0,0,0,1.73-.07,2.64,2.64,0,0,0,.72-2.17A6.48,6.48,0,0,0,84.29,131.52Z"/><path class="cls-1" d="M56.78,144.15a.63.63,0,0,1-.19,0,.75.75,0,0,1-.54-.91A20.8,20.8,0,0,1,60,136.37l-.76-.5-.85-.56-2.1-1.39c-4.7-3.15-9.57-6.42-15-7.07-3-.36-7.47,0-10.21,2.27A6.47,6.47,0,0,0,30,130.21,6,6,0,0,1,33,134.39a2.76,2.76,0,0,1-.64,2.45,2.8,2.8,0,0,1-3.81,0,4.12,4.12,0,0,1-1.22-3.4,8,8,0,0,1,.61-2.58,17.63,17.63,0,0,0-3.64-.77c-4.19-.51-8.34-1.55-10.34-5.7a15.37,15.37,0,0,1-.65-11.28c-2.21.63-6.19,1.31-9.27-.71-2.65-1.75-4-5.09-4-9.93a.76.76,0,0,1,.75-.75.76.76,0,0,1,.75.75c0,4.3,1.12,7.22,3.33,8.68,3.73,2.45,9.45,0,9.51,0a.75.75,0,0,1,.84.18.76.76,0,0,1,.12.86,13.44,13.44,0,0,0,0,11.54c1.68,3.5,5.4,4.4,9.16,4.87a17.59,17.59,0,0,1,4.19.93,8,8,0,0,1,1.49-1.6c3.11-2.55,7.91-3,11.35-2.6,5.78.7,10.8,4.06,15.65,7.31.7.47,1.39.94,2.08,1.39l.86.56.92.6c2.06-2.28,4.41-4.13,6.36-4.46,2.44-.42,6.46,0,7.52,2.87a4.48,4.48,0,0,1-.25,3.72,5.12,5.12,0,0,1-3.42,2.53,11,11,0,0,1-8.41-1.72l-1.54-1a19.3,19.3,0,0,0-3.74,6.39A.75.75,0,0,1,56.78,144.15ZM62.24,136c.44.29.89.57,1.34.85a9.52,9.52,0,0,0,7.28,1.53,3.73,3.73,0,0,0,2.43-1.78,3,3,0,0,0,.16-2.49c-.7-1.88-3.85-2.25-5.86-1.92C66.09,132.49,64.08,134.05,62.24,136Zm-33-4.52a6.47,6.47,0,0,0-.47,2,2.61,2.61,0,0,0,.72,2.17,1.34,1.34,0,0,0,1.72.07,1.3,1.3,0,0,0,.26-1.12A4.65,4.65,0,0,0,29.26,131.52Z"/><path class="cls-1" d="M44.3,21.31a8.72,8.72,0,0,1-1.69-.16,5.77,5.77,0,0,1-4.52-5.87,5.76,5.76,0,0,1,4.52-5.86,13.28,13.28,0,0,1,6.4.68c2.86.87,6.05,3,8.21,4.59a.76.76,0,0,1,0,1.22A29.83,29.83,0,0,1,49,20.46,16.57,16.57,0,0,1,44.3,21.31Zm0-10.55a7,7,0,0,0-1.38.13,4.29,4.29,0,0,0-3.33,4.39,4.3,4.3,0,0,0,3.33,4.4A12,12,0,0,0,48.57,19a26.72,26.72,0,0,0,6.92-3.73,26.57,26.57,0,0,0-6.92-3.76A15.27,15.27,0,0,0,44.3,10.76Z"/><path class="cls-1" d="M69.26,21.31a16.57,16.57,0,0,1-4.71-.85,29.83,29.83,0,0,1-8.21-4.55.76.76,0,0,1,0-1.22C58.5,13.14,61.7,11,64.55,10.1A13.29,13.29,0,0,1,71,9.42a5.76,5.76,0,0,1,4.52,5.86A5.77,5.77,0,0,1,71,21.15,8.64,8.64,0,0,1,69.26,21.31Zm-11.18-6A26.69,26.69,0,0,0,65,19a12,12,0,0,0,5.66.65A4.3,4.3,0,0,0,74,15.28a4.29,4.29,0,0,0-3.32-4.39,11.92,11.92,0,0,0-5.66.65A26.54,26.54,0,0,0,58.08,15.3Z"/><path class="cls-1" d="M112.8,103.24a.75.75,0,0,1-.75-.75V41.54c0-4.29-1.11-7.2-3.31-8.63-3.73-2.44-9.46,0-9.52.05a.74.74,0,0,1-.85-.18.76.76,0,0,1-.11-.86,13.47,13.47,0,0,0,0-11.54c-1.68-3.49-5.4-4.4-9.17-4.86a17.59,17.59,0,0,1-4.19-.93,8.61,8.61,0,0,1-1.49,1.6c-3.11,2.55-7.9,3-11.35,2.59-5.77-.69-10.79-4.06-15.64-7.31l-2.09-1.38-.84-.55-.93-.62c-2.07,2.29-4.42,4.14-6.37,4.47-2.43.41-6.45,0-7.51-2.88A4.41,4.41,0,0,1,39,6.79a5.16,5.16,0,0,1,3.41-2.53A11,11,0,0,1,50.77,6c.52.32,1,.65,1.54,1A18.89,18.89,0,0,0,56.05.56.75.75,0,0,1,57.5.93a20.62,20.62,0,0,1-3.94,6.84l.77.51.85.55c.69.46,1.39.92,2.09,1.4,4.71,3.15,9.57,6.41,15,7.07,3,.36,7.47,0,10.22-2.27a6.87,6.87,0,0,0,1.06-1.1,6,6,0,0,1-3-4.18,2.77,2.77,0,0,1,.64-2.44,2.81,2.81,0,0,1,3.81,0,4.11,4.11,0,0,1,1.22,3.41,8,8,0,0,1-.6,2.57,16.32,16.32,0,0,0,3.63.77c4.19.51,8.35,1.56,10.34,5.7A15.3,15.3,0,0,1,100.28,31c2.22-.65,6.21-1.36,9.28.65,2.65,1.73,4,5.06,4,9.89v61A.74.74,0,0,1,112.8,103.24ZM83.08,8.05a1,1,0,0,0-.76.29,1.28,1.28,0,0,0-.25,1.12,4.59,4.59,0,0,0,2.22,3.16,6.42,6.42,0,0,0,.48-2,2.62,2.62,0,0,0-.72-2.17A1.48,1.48,0,0,0,83.08,8.05ZM44.51,5.52a8,8,0,0,0-1.82.21,3.65,3.65,0,0,0-2.42,1.78A2.89,2.89,0,0,0,40.1,10c.7,1.89,3.85,2.26,5.86,1.92,1.51-.25,3.51-1.82,5.35-3.81L50,7.25A10.35,10.35,0,0,0,44.51,5.52Z"/><path class="cls-1" d="M.75,103.24a.75.75,0,0,1-.75-.75V41.54c0-4.83,1.34-8.16,4-9.89,3.08-2,7.06-1.3,9.28-.65a15.35,15.35,0,0,1,.65-11.27c2-4.14,6.15-5.19,10.34-5.7a16.41,16.41,0,0,0,3.64-.77,8,8,0,0,1-.61-2.57,4.15,4.15,0,0,1,1.22-3.41,2.81,2.81,0,0,1,3.81,0A2.74,2.74,0,0,1,33,9.75,6,6,0,0,1,30,13.93,6.53,6.53,0,0,0,31.08,15c2.74,2.25,7.22,2.63,10.21,2.27,5.42-.66,10.29-3.92,15-7.07l2.1-1.4.85-.56c.26-.16.51-.33.76-.5A20.8,20.8,0,0,1,56.05.93.75.75,0,1,1,57.5.56,19.23,19.23,0,0,0,61.24,7l1.54-1a11,11,0,0,1,8.41-1.72,5.18,5.18,0,0,1,3.42,2.53,4.48,4.48,0,0,1,.25,3.72c-1.06,2.87-5.08,3.29-7.52,2.88-2-.33-4.3-2.18-6.36-4.47-.31.2-.62.4-.92.61l-.86.56-2.08,1.38c-4.85,3.25-9.87,6.62-15.65,7.31-3.45.42-8.24,0-11.35-2.59a8.61,8.61,0,0,1-1.49-1.6,17.59,17.59,0,0,1-4.19.93c-3.76.46-7.48,1.37-9.16,4.86a13.44,13.44,0,0,0,0,11.54.76.76,0,0,1-.12.86.75.75,0,0,1-.85.18c-.05,0-5.8-2.48-9.52-.05-2.2,1.44-3.31,4.34-3.31,8.63v61A.75.75,0,0,1,.75,103.24ZM30.47,8.05a1.43,1.43,0,0,0-1,.36,2.59,2.59,0,0,0-.72,2.17,6.47,6.47,0,0,0,.47,2,4.63,4.63,0,0,0,2.23-3.16,1.28,1.28,0,0,0-.26-1.12A1,1,0,0,0,30.47,8.05Zm31.77,0c1.84,2,3.85,3.56,5.35,3.81,2,.34,5.16,0,5.86-1.92a2.93,2.93,0,0,0-.16-2.48,3.7,3.7,0,0,0-2.43-1.78,9.56,9.56,0,0,0-7.28,1.52Z"/><path class="cls-1" d="M106.93,120.46H6.62a.76.76,0,0,1-.75-.75V24.44a.75.75,0,0,1,.75-.75H106.93a.74.74,0,0,1,.75.75v95.27A.75.75,0,0,1,106.93,120.46ZM7.37,119h98.81V25.19H7.37Z"/><path class="cls-1" d="M106.93,120.46H6.62a.76.76,0,0,1-.75-.75V24.44a.75.75,0,0,1,.75-.75H106.93a.74.74,0,0,1,.75.75v95.27A.75.75,0,0,1,106.93,120.46ZM7.37,119h98.81V25.19H7.37Z"/></g></g></svg>