<svg xmlns="http://www.w3.org/2000/svg" viewBox="0 0 220 177.5"><defs><style>.cls-1{fill:#ffe59d;}.cls-2{fill:#c4af78;}</style></defs><title>Asset 1</title><g id="Layer_2" data-name="Layer 2"><g id="Layer_1-2" data-name="Layer 1"><polygon class="cls-1" points="0 0.5 0.69 61.98 77.54 0.5 0 0.5"/><polygon class="cls-2" points="92.5 0 78.17 0 77.54 0.5 91.88 0.5 92.5 0"/><polygon class="cls-2" points="77.54 0.5 0.69 61.98 0.83 74.21 91.88 0.5 77.54 0.5"/><polygon class="cls-1" points="91.88 0.5 0.83 74.21 1.34 119.06 149.54 0.5 91.88 0.5"/><polygon class="cls-1" points="220 0.5 171.87 0.5 1.52 135.21 2 177.5 220 0.5"/><polygon class="cls-2" points="172.5 0 150.17 0 149.54 0.5 171.87 0.5 172.5 0"/><polygon class="cls-2" points="149.54 0.5 1.34 119.06 1.52 135.21 171.87 0.5 149.54 0.5"/></g></g></svg>